<?xml version="1.0" encoding="UTF-8"?>
<svg width="64px" height="56px" viewBox="0 0 64 56" version="1.1" xmlns="http://www.w3.org/2000/svg" xmlns:xlink="http://www.w3.org/1999/xlink">
    <title>contact</title>
    <g id="Page-1" stroke="none" stroke-width="1" fill="none" fill-rule="evenodd">
        <g id="contact" transform="translate(0.454100, 0.983700)" fill="#FFFFFF">
            <path d="M54.3423,26.7067 L35.3663,26.7067 C34.6623,26.7067 34.0943,26.1367 34.0943,25.4347 C34.0943,24.7307 34.6623,24.1617 35.3663,24.1617 L54.3423,24.1617 C55.0463,24.1617 55.6143,24.7307 55.6143,25.4347 C55.6143,26.1367 55.0463,26.7067 54.3423,26.7067 M54.3423,33.0667 L31.1693,33.0667 C30.4663,33.0667 29.8973,32.4977 29.8973,31.7957 C29.8973,31.0927 30.4663,30.5227 31.1693,30.5227 L54.3423,30.5227 C55.0463,30.5227 55.6153,31.0927 55.6153,31.7957 C55.6153,32.4977 55.0463,33.0667 54.3423,33.0667 M54.3423,39.4287 L31.1693,39.4287 C30.4663,39.4287 29.8973,38.8587 29.8973,38.1557 C29.8973,37.4527 30.4663,36.8847 31.1693,36.8847 L54.3423,36.8847 C55.0463,36.8847 55.6153,37.4527 55.6153,38.1557 C55.6153,38.8587 55.0463,39.4287 54.3423,39.4287 M61.8393,17.8007 L23.6723,17.8007 C22.9683,17.8007 22.4003,18.3697 22.4003,19.0727 L22.4003,44.5177 C22.4003,45.2197 22.9683,45.7897 23.6723,45.7897 L43.7533,45.7897 L48.2773,53.7927 C48.5023,54.1917 48.9253,54.4377 49.3843,54.4377 C49.8423,54.4377 50.2663,54.1917 50.4913,53.7927 L55.0143,45.7897 L61.8393,45.7897 C62.5433,45.7897 63.1123,45.2197 63.1123,44.5177 L63.1123,19.0727 C63.1113,18.3697 62.5423,17.8007 61.8393,17.8007" id="Fill-66"></path>
            <path d="M8.769,8.905 C8.065,8.905 7.497,8.335 7.497,7.633 C7.497,6.929 8.065,6.361 8.769,6.361 L27.745,6.361 C28.449,6.361 29.017,6.929 29.017,7.633 C29.017,8.335 28.449,8.905 27.745,8.905 L8.769,8.905 Z M15.389,15.266 L8.769,15.266 C8.065,15.266 7.497,14.696 7.497,13.994 C7.497,13.291 8.065,12.721 8.769,12.721 L15.389,12.721 C16.092,12.721 16.661,13.291 16.661,13.994 C16.661,14.696 16.092,15.266 15.389,15.266 L15.389,15.266 Z M15.389,21.628 L8.769,21.628 C8.065,21.628 7.497,21.057 7.497,20.355 C7.497,19.652 8.065,19.083 8.769,19.083 L15.389,19.083 C16.092,19.083 16.661,19.652 16.661,20.355 C16.661,21.057 16.092,21.628 15.389,21.628 L15.389,21.628 Z M40.711,15.257 L40.711,1.272 C40.711,0.568 40.142,2.27373675e-13 39.439,2.27373675e-13 L1.272,2.27373675e-13 C0.569,2.27373675e-13 -2.27373675e-13,0.568 -2.27373675e-13,1.272 L-2.27373675e-13,26.717 C-2.27373675e-13,27.419 0.569,27.988 1.272,27.988 L6.824,27.988 L11.348,35.991 C11.573,36.391 11.997,36.637 12.455,36.637 C12.914,36.637 13.337,36.391 13.562,35.991 L18.085,27.988 L19.856,27.988 L19.856,19.073 C19.856,16.968 21.568,15.257 23.673,15.257 L40.711,15.257 Z" id="Fill-68"></path>
        </g>
    </g>
</svg>