<?xml version="1.0" encoding="UTF-8"?>
<svg width="43px" height="50px" viewBox="0 0 43 50" version="1.1" xmlns="http://www.w3.org/2000/svg" xmlns:xlink="http://www.w3.org/1999/xlink">
    <title>euro</title>
    <g id="Page-1" stroke="none" stroke-width="1" fill="none" fill-rule="evenodd">
        <g id="euro" transform="translate(0.527100, 0.257330)" fill="#FFFFFF">
            <path d="M40.657,46.45357 C41.702,45.97357 41.996,45.22357 41.559,44.16057 L41.558,44.15957 C41.055,42.93057 40.464,41.50157 39.817,40.09957 C39.345,39.06457 38.832,38.81457 37.708,39.07257 C36.993,39.23657 36.283,39.42457 35.574,39.61157 C34.648,39.85557 33.69,40.10957 32.734,40.30557 C29.113,41.06157 25.898,40.97157 22.908,40.02557 C19.207,38.86257 16.771,36.28357 15.24,31.91057 L15.053,31.37357 L26.424,31.37357 C27.045,31.37357 27.551,30.86757 27.551,30.24657 L27.551,26.84257 C27.551,26.22157 27.045,25.71557 26.424,25.71557 L14.183,25.71557 L14.181,24.36357 C14.178,23.74557 14.176,23.13957 14.183,22.53357 L14.188,22.13457 L26.424,22.13457 C27.045,22.13457 27.551,21.62857 27.551,21.00757 L27.551,17.60257 C27.551,16.98157 27.045,16.47557 26.424,16.47557 L15.673,16.47557 L15.673,16.07157 C15.673,16.01157 15.673,15.88857 15.744,15.76957 C17.178,12.52657 19.215,10.41757 21.97,9.32256998 C25.151,8.06556998 28.676,7.86156998 32.744,8.70256998 C33.705,8.89656998 34.669,9.15056998 35.6,9.39656998 C36.324,9.58856998 37.049,9.77956998 37.78,9.94556998 C38.82,10.18257 39.347,9.91856998 39.796,8.93956998 C40.389,7.65156998 40.927,6.36156998 41.517,4.93056998 C41.967,3.84656998 41.731,3.15856998 40.704,2.55656998 C40.436,2.39956998 40.151,2.26356998 39.831,2.14056998 C34.723,0.146569978 29.599,-0.457430022 24.605,0.341569978 C20.602,0.984569978 17.316,2.33956998 14.556,4.48256998 C11.01,7.22656998 8.469,10.98857 7.007,15.66557 L6.737,16.47557 L1.127,16.47557 C0.506,16.47557 0,16.98157 0,17.60257 L0,21.00757 C0,21.62857 0.506,22.13457 1.127,22.13457 L5.721,22.13457 L5.721,25.71557 L1.127,25.71557 C0.506,25.71557 0,26.22157 0,26.84257 L0,30.24657 C0,30.86757 0.506,31.37357 1.127,31.37357 L6.474,31.37357 L6.562,31.65857 C6.665,31.99257 6.764,32.32857 6.863,32.66457 C7.123,33.55057 7.392,34.46657 7.74,35.31757 C10.34,41.59257 14.726,45.76857 20.775,47.72957 C25.813,49.36357 31.141,49.42857 36.611,47.92157 C38.02,47.53457 39.382,47.04157 40.657,46.45357" id="Fill-84"></path>
        </g>
    </g>
</svg>