<?xml version="1.0" encoding="UTF-8"?>
<svg width="72px" height="34px" viewBox="0 0 72 34" version="1.1" xmlns="http://www.w3.org/2000/svg" xmlns:xlink="http://www.w3.org/1999/xlink">
    <title>group</title>
    <g id="Page-1" stroke="none" stroke-width="1" fill="none" fill-rule="evenodd">
        <g id="group" transform="translate(0.782450, 0.466900)" fill="#FFFFFF">
            <path d="M20.7829498,7.664 C20.7829498,3.438 17.3449498,0 13.1189498,0 C2.94994978,0.42 2.95394978,14.909 13.1189498,15.329 C17.3449498,15.329 20.7829498,11.891 20.7829498,7.664" id="Fill-72"></path>
            <path d="M65.0007498,7.664 C65.0007498,3.438 61.5627498,0 57.3367498,0 C47.1677498,0.42 47.1717498,14.909 57.3367498,15.329 C61.5627498,15.329 65.0007498,11.891 65.0007498,7.664" id="Fill-74"></path>
            <path d="M42.8918498,7.664 C42.8918498,3.438 39.4538498,0 35.2278498,0 C25.0588498,0.42 25.0628498,14.909 35.2278498,15.329 C39.4538498,15.329 42.8918498,11.891 42.8918498,7.664" id="Fill-76"></path>
            <path d="M21.3401498,18.2328 C12.9341498,11.3468 -0.0508502246,17.4858 -2.27373675e-13,28.4468 L-2.27373675e-13,30.8048 C-2.27373675e-13,31.9448 0.924149775,32.8688 2.06414978,32.8688 L18.3371498,32.8688 C18.1071498,32.2228 17.9811498,31.5288 17.9811498,30.8048 L17.9811498,28.4468 C17.9811498,24.6268 19.2301498,21.0938 21.3401498,18.2328" id="Fill-78"></path>
            <path d="M57.3366498,15.3285 C54.2266498,15.3285 51.3666498,16.4175 49.1146498,18.2325 C51.2256498,21.0945 52.4746498,24.6265 52.4746498,28.4475 L52.4746498,30.8055 C52.4746498,31.5285 52.3486498,32.2225 52.1196498,32.8695 L68.3906498,32.8695 C69.5306498,32.8695 70.4546498,31.9445 70.4546498,30.8055 L70.4546498,28.4475 C70.4546498,21.2135 64.5696498,15.3285 57.3366498,15.3285" id="Fill-80"></path>
            <path d="M35.2278498,15.3285 C27.9938498,15.3285 22.1088498,21.2145 22.1088498,28.4475 L22.1088498,30.8055 C22.1088498,31.9445 23.0338498,32.8695 24.1728498,32.8695 L46.2818498,32.8695 C47.4228498,32.8695 48.3458498,31.9445 48.3458498,30.8055 L48.3458498,28.4475 C48.3458498,21.2135 42.4608498,15.3285 35.2278498,15.3285" id="Fill-82"></path>
        </g>
    </g>
</svg>