<?xml version="1.0" encoding="UTF-8"?>
<svg width="44px" height="44px" viewBox="0 0 44 44" version="1.1" xmlns="http://www.w3.org/2000/svg" xmlns:xlink="http://www.w3.org/1999/xlink">
    <title>info</title>
    <g id="Page-1" stroke="none" stroke-width="1" fill="none" fill-rule="evenodd">
        <g id="info" transform="translate(0.833800, 0.271600)" fill="#FFFFFF">
            <path d="M21.488,39.619 C11.467,39.619 3.357,31.51 3.357,21.488 C3.357,11.467 11.467,3.357 21.488,3.357 C31.51,3.357 39.619,11.468 39.619,21.488 C39.619,31.51 31.509,39.619 21.488,39.619 M21.488,0 C9.611,0 0,9.611 0,21.488 C0,33.366 9.611,42.976 21.488,42.976 C33.366,42.976 42.977,33.365 42.977,21.488 C42.977,9.61 33.364,0 21.488,0" id="Fill-96"></path>
            <path d="M21.488,17.9901 C20.561,17.9901 19.809,18.7421 19.809,19.6691 L19.809,30.4801 C19.809,31.4071 20.561,32.1591 21.488,32.1591 C22.415,32.1591 23.167,31.4071 23.167,30.4791 L23.167,19.6691 C23.167,18.7421 22.415,17.9901 21.488,17.9901" id="Fill-98"></path>
            <path d="M23.7546,13.6688 C23.7546,14.9198 22.7396,15.9348 21.4876,15.9348 C20.2366,15.9348 19.2216,14.9198 19.2216,13.6688 C19.2216,12.4168 20.2366,11.4018 21.4876,11.4018 C22.7396,11.4018 23.7546,12.4168 23.7546,13.6688" id="Fill-100"></path>
        </g>
    </g>
</svg>