<svg xmlns="http://www.w3.org/2000/svg" viewBox="0 0 31.98 31.98"><defs><style>.cls-1{fill:#fff;}</style></defs><g id="Layer_2" data-name="Layer 2"><g id="Contact"><path class="cls-1" d="M22,0H10A10,10,0,0,0,0,10V22A10,10,0,0,0,10,32H22A10,10,0,0,0,32,22V10A10,10,0,0,0,22,0Zm7,22a7,7,0,0,1-7,7H10a7,7,0,0,1-7-7V10a7,7,0,0,1,7-7H22a7,7,0,0,1,7,7Z"/><path class="cls-1" d="M16,8a8,8,0,1,0,8,8,8,8,0,0,0-8-8Zm0,13a5,5,0,1,1,5-5,5,5,0,0,1-5,5Z"/><path class="cls-1" d="M25.65,7.4a1.07,1.07,0,1,1-1.06-1.07A1.07,1.07,0,0,1,25.65,7.4Z"/></g></g></svg>