<svg xmlns="http://www.w3.org/2000/svg" viewBox="0 0 70.47 51.21"><g id="Layer_2" data-name="Layer 2"><g id="Laag_2" data-name="Laag 2"><path d="M12.31,20.51a1,1,0,0,1-.86-.49,1,1,0,0,1,.06-1.12L21.89,5a1,1,0,0,1,.66-.4l9-1.3a1,1,0,0,1,1,.48,1,1,0,0,1-.05,1.12L22.1,18.81a1.05,1.05,0,0,1-.67.39l-9,1.3Z"/><path d="M31.68,4.36Z"/><path d="M31.6,3.84Z"/><path d="M2.07,18.17a.86.86,0,0,1-.22,0,.89.89,0,0,1-.65-.73L0,9.25a1.37,1.37,0,0,1,.27-1,1.41,1.41,0,0,1,.91-.54h0L9.33,6.53a.86.86,0,0,1,.89.42.9.9,0,0,1-.05,1L2.78,17.82A.87.87,0,0,1,2.07,18.17Z"/><path d="M35.12,17.2a1.14,1.14,0,0,1-.92-1.83L44.34,1.8a1.1,1.1,0,0,1,.75-.45L54.31,0a1.14,1.14,0,0,1,1.15.55,1.15,1.15,0,0,1-.06,1.28L45.26,15.41a1.17,1.17,0,0,1-.76.45l-9.22,1.33Z"/><path d="M58.46,13.82a1.25,1.25,0,0,1-1-2l6.11-8.18a1.25,1.25,0,0,1,2.23.56h0l1,7.1a1.29,1.29,0,0,1-1.09,1.46l-7.1,1Z"/><path d="M48.29,50V29.44C60.11,29.44,60,40.53,60,44.17V50a1.23,1.23,0,0,0,1.23,1.22h8A1.23,1.23,0,0,0,70.47,50V42.12a21.89,21.89,0,0,0-6.91-15.63,5.6,5.6,0,0,0-3.89-1.58H39.44a1.23,1.23,0,0,0-1.23,1.23V50a1.23,1.23,0,0,0,1.23,1.22h7.62A1.23,1.23,0,0,0,48.29,50Z"/><path d="M23.92,44.17c0-3.64.15-14.73-11.67-14.73V50A1.23,1.23,0,0,1,11,51.21H3.4A1.23,1.23,0,0,1,2.17,50V26.14A1.23,1.23,0,0,1,3.4,24.91H24.1a4.46,4.46,0,0,1,3,1.16,22,22,0,0,1,7.34,16V50a1.22,1.22,0,0,1-1.22,1.22H25.14A1.22,1.22,0,0,1,23.92,50Z"/></g></g></svg>