<?xml version="1.0" encoding="UTF-8"?>
<svg width="40px" height="40px" viewBox="0 0 40 40" version="1.1" xmlns="http://www.w3.org/2000/svg" xmlns:xlink="http://www.w3.org/1999/xlink">
    <title>mute</title>
    <g id="Page-1" stroke="none" stroke-width="1" fill="none" fill-rule="evenodd">
        <g id="mute" transform="translate(0.791500, 0.666315)" fill="#FFFFFF">
            <path d="M38.646,34.8580852 L30.514,26.7260852 L30.514,26.7220852 L15.942,12.1500852 L15.942,12.1540852 L5.27,1.48208521 C4.717,0.929085207 3.82,0.929085207 3.267,1.48208521 C2.714,2.03508521 2.714,2.93108521 3.267,3.48408521 L10.113,10.3310852 L4.479,10.3310852 C2.005,10.3310852 0,12.3360852 0,14.8090852 L0,24.4380852 C0,26.9120852 2.005,28.9170852 4.479,28.9170852 L13.05,28.9170852 L13.05,13.2680852 L15.942,16.1600852 L15.942,28.9170852 L27.913,38.8770852 C28.946,39.7370852 30.514,39.0020852 30.514,37.6570852 L30.514,30.7320852 L36.643,36.8610852 C37.196,37.4140852 38.093,37.4140852 38.646,36.8610852 C39.199,36.3080852 39.199,35.4110852 38.646,34.8580852" id="Fill-102"></path>
            <path d="M30.5142,1.58998521 C30.5142,0.244985207 28.9462,-0.490014793 27.9122,0.369985207 L17.1362,9.33798521 L30.5142,22.7159852 L30.5142,1.58998521 Z" id="Fill-104"></path>
        </g>
    </g>
</svg>