<?xml version="1.0" encoding="UTF-8"?>
<svg width="60px" height="49px" viewBox="0 0 60 49" version="1.1" xmlns="http://www.w3.org/2000/svg" xmlns:xlink="http://www.w3.org/1999/xlink">
    <title>process</title>
    <g id="Page-1" stroke="none" stroke-width="1" fill="none" fill-rule="evenodd">
        <path d="M49.1045,37.9946 L51.9155,40.1036 L41.5435,40.1036 C40.8215,37.8516 38.7125,36.2226 36.2215,36.2226 C36.2025,36.2226 36.1835,36.2236 36.1635,36.2236 L36.1635,36.2226 L23.7965,36.2226 C21.3065,36.2226 19.1985,37.8526 18.4765,40.1036 L10.5655,40.1036 C6.6895,40.1036 3.5375,36.9516 3.5375,33.0756 C3.5375,29.1996 6.6895,26.0476 10.5655,26.0476 L18.4935,26.0476 C19.2305,28.2726 21.3255,29.8806 23.7985,29.8806 C23.8805,29.8806 23.9625,29.8776 24.0435,29.8746 L35.9765,29.8746 C36.0575,29.8776 36.1395,29.8806 36.2215,29.8806 C38.6945,29.8806 40.7895,28.2726 41.5265,26.0476 L49.4545,26.0476 C55.2675,26.0476 59.9965,21.3186 59.9965,15.5046 C59.9965,9.6916 55.2675,4.9626 49.4545,4.9626 L41.5085,4.9626 C40.7575,2.7626 38.6765,1.1776 36.2215,1.1776 C36.2025,1.1776 36.1835,1.1786 36.1635,1.1786 L36.1635,1.1776 L23.7965,1.1776 C21.3425,1.1776 19.2625,2.7626 18.5115,4.9626 L12.9085,4.9626 L6.3485,0.0436 L4.2415,2.8536 L7.0525,4.9626 L0.0235,4.9626 L0.0235,8.4766 L7.0525,8.4766 L4.2415,10.5856 L6.3485,13.3956 L12.9085,8.4766 L18.4765,8.4766 C19.1985,10.7276 21.3075,12.3586 23.7985,12.3586 C23.8805,12.3586 23.9625,12.3556 24.0435,12.3516 L35.9765,12.3516 C36.0575,12.3556 36.1395,12.3586 36.2215,12.3586 C38.7125,12.3586 40.8215,10.7276 41.5435,8.4766 L49.4545,8.4766 C53.3305,8.4766 56.4825,11.6286 56.4825,15.5046 C56.4825,19.3806 53.3305,22.5336 49.4545,22.5336 L41.5265,22.5336 C40.7895,20.3076 38.6945,18.6996 36.2215,18.6996 C36.2025,18.6996 36.1835,18.7006 36.1635,18.7016 L36.1635,18.6996 L23.7965,18.6996 C21.3245,18.7006 19.2305,20.3076 18.4935,22.5336 L10.5655,22.5336 C4.7525,22.5336 0.0235,27.2626 0.0235,33.0756 C0.0235,38.8886 4.7525,43.6176 10.5655,43.6176 L18.5115,43.6176 C19.2625,45.8186 21.3435,47.4036 23.7985,47.4036 C23.8805,47.4036 23.9625,47.4006 24.0435,47.3966 L35.9765,47.3966 C36.0575,47.4006 36.1395,47.4036 36.2215,47.4036 C38.6765,47.4036 40.7575,45.8186 41.5085,43.6176 L51.9155,43.6176 L49.1045,45.7256 L51.2115,48.5366 L59.9965,41.8606 L51.2115,35.1836 L49.1045,37.9946 Z" id="process" fill="#FFFFFF"></path>
    </g>
</svg>