<?xml version="1.0" encoding="UTF-8"?>
<svg width="53px" height="40px" viewBox="0 0 53 40" version="1.1" xmlns="http://www.w3.org/2000/svg" xmlns:xlink="http://www.w3.org/1999/xlink">
    <title>sound</title>
    <g id="Page-1" stroke="none" stroke-width="1" fill="none" fill-rule="evenodd">
        <g id="sound" transform="translate(0.791800, 0.076115)" fill="#FFFFFF">
            <path d="M13.05,28.9165852 L4.472,28.9165852 C2.002,28.9165852 0,26.9145852 0,24.4435852 L0,14.8035852 C0,12.3335852 2.002,10.3305852 4.472,10.3305852 L13.05,10.3305852 L13.05,28.9165852 Z" id="Fill-86"></path>
            <path d="M27.9123,38.8769852 L15.9423,28.9169852 L15.9423,10.3309852 L27.9123,0.369985207 C28.9463,-0.490014793 30.5143,0.244985207 30.5143,1.58998521 L30.5143,37.6569852 C30.5143,39.0019852 28.9463,39.7369852 27.9123,38.8769852" id="Fill-88"></path>
            <path d="M45.9089,36.0493852 C45.6599,36.0493852 45.4079,35.9873852 45.1749,35.8573852 C44.4509,35.4503852 44.1939,34.5333852 44.5999,33.8093852 C47.0229,29.4933852 48.3039,24.5873852 48.3039,19.6223852 C48.3039,14.6583852 47.0239,9.75238521 44.5999,5.43638521 C44.1939,4.71238521 44.4519,3.79638521 45.1759,3.39038521 C45.8999,2.98338521 46.8159,3.24138521 47.2219,3.96438521 C49.8969,8.72938521 51.3099,14.1443852 51.3099,19.6223852 C51.3099,25.1023852 49.8959,30.5163852 47.2219,35.2813852 C46.9459,35.7723852 46.4349,36.0493852 45.9089,36.0493852" id="Fill-90"></path>
            <path d="M40.4768,31.7676852 C40.2498,31.7676852 40.0188,31.7166852 39.8028,31.6066852 C39.0608,31.2346852 38.7618,30.3306852 39.1348,29.5886852 C40.6998,26.4756852 41.4938,23.1216852 41.4938,19.6216852 C41.4938,16.1236852 40.6998,12.7706852 39.1358,9.65768521 C38.7628,8.91568521 39.0618,8.01168521 39.8038,7.63968521 C40.5458,7.26668521 41.4488,7.56468521 41.8218,8.30768521 C43.5988,11.8426852 44.4998,15.6506852 44.4998,19.6216852 C44.4998,23.5956852 43.5988,27.4026852 41.8208,30.9396852 C41.5568,31.4646852 41.0268,31.7676852 40.4768,31.7676852" id="Fill-92"></path>
            <path d="M34.9748,27.4306852 C34.7888,27.4306852 34.5998,27.3966852 34.4158,27.3226852 C33.6458,27.0136852 33.2708,26.1386852 33.5798,25.3676852 C34.3118,23.5406852 34.6828,21.6076852 34.6828,19.6216852 C34.6828,17.6376852 34.3118,15.7046852 33.5798,13.8786852 C33.2718,13.1076852 33.6458,12.2316852 34.4168,11.9236852 C35.1878,11.6146852 36.0628,11.9896852 36.3708,12.7606852 C37.2458,14.9446852 37.6898,17.2536852 37.6898,19.6216852 C37.6898,21.9926852 37.2458,24.3016852 36.3708,26.4856852 C36.1358,27.0736852 35.5708,27.4306852 34.9748,27.4306852" id="Fill-94"></path>
        </g>
    </g>
</svg>