<svg xmlns="http://www.w3.org/2000/svg" viewBox="0 0 28.83 28.83"><defs><style>.cls-1{fill:#fff;}</style></defs><g id="Layer_2" data-name="Layer 2"><g id="Contact"><path class="cls-1" d="M14.42,0h0A14.41,14.41,0,0,0,2.74,22.86L1,28.22l5.54-1.77A14.41,14.41,0,1,0,14.42,0Zm8.39,20.36a4.08,4.08,0,0,1-2.83,2c-.76.16-1.74.29-5.05-1.08C10.69,19.55,8,15.25,7.75,15A8.27,8.27,0,0,1,6,10.62,4.61,4.61,0,0,1,7.51,7.11,2.14,2.14,0,0,1,9,6.59l.48,0c.42,0,.64,0,.92.71.34.84,1.19,2.91,1.29,3.12a.85.85,0,0,1,.06.78,2.31,2.31,0,0,1-.46.66c-.22.25-.42.43-.63.7s-.42.47-.17.89a12.74,12.74,0,0,0,2.34,2.91,10.79,10.79,0,0,0,3.38,2.09.93.93,0,0,0,1-.16,17.17,17.17,0,0,0,1.12-1.5.82.82,0,0,1,1-.31c.39.14,2.44,1.15,2.87,1.36s.7.32.8.5a3.65,3.65,0,0,1-.24,2Z"/></g></g></svg>